<svg xmlns="http://www.w3.org/2000/svg" viewBox="0 0 40.06 40.07"><defs><style>.cls-1{fill:#d14f40;}.cls-2{fill:#fff;}</style></defs><title>icon_gp</title><g id="レイヤー_2" data-name="レイヤー 2"><g id="レイヤー_1-2" data-name="レイヤー 1"><path class="cls-1" d="M1.16.19A4.53,4.53,0,0,1,2.67,0q17.52,0,35,0A2.13,2.13,0,0,1,40,2.33c0,11.79,0,23.59,0,35.38a2.17,2.17,0,0,1-2.33,2.35H2.34A2.17,2.17,0,0,1,0,37.71C0,25.92,0,14.12,0,2.33A2.27,2.27,0,0,1,1.16.19ZM9.06,20a7,7,0,0,0,4.71,6.6,6.89,6.89,0,0,0,7.53-2A7.89,7.89,0,0,0,22.71,19c-2.23,0-4.45,0-6.68,0,0,.79,0,1.58,0,2.38,1.33,0,2.67,0,4,0a3.86,3.86,0,0,1-2.27,2.64,4.41,4.41,0,1,1-3-8.3,4.9,4.9,0,0,1,4.13.81c.62-.58,1.2-1.2,1.77-1.83A7,7,0,0,0,9.06,20Zm18-3c0,.66,0,1.33,0,2H25v2h2c0,.66,0,1.33,0,2h2c0-.67,0-1.33,0-2h2V19H29c0-.66,0-1.33,0-2Z"/><path class="cls-2" d="M9.06,20a7,7,0,0,1,11.64-5.25c-.57.63-1.15,1.25-1.77,1.83a4.9,4.9,0,0,0-4.13-.81,4.41,4.41,0,1,0,3,8.3A3.86,3.86,0,0,0,20,21.44c-1.33,0-2.67,0-4,0,0-.79,0-1.58,0-2.38,2.22,0,4.45,0,6.68,0a7.89,7.89,0,0,1-1.41,5.58,6.89,6.89,0,0,1-7.53,2A7,7,0,0,1,9.06,20Z"/><path class="cls-2" d="M27,17h2c0,.66,0,1.33,0,2h2v2H29c0,.67,0,1.33,0,2H27c0-.67,0-1.33,0-2H25V19h2C27,18.35,27,17.68,27,17Z"/></g></g></svg>