<svg xmlns="http://www.w3.org/2000/svg" viewBox="0 0 44.87 40.07"><defs><style>.cls-1{fill:#e8374a;}</style></defs><title>icon_pk</title><g id="レイヤー_2" data-name="レイヤー 2"><g id="レイヤー_1-2" data-name="レイヤー 1"><path class="cls-1" d="M44.65,2.68A4.08,4.08,0,0,0,40.83,0H4.07A4.09,4.09,0,0,0,.27,2.62,4,4,0,0,0,0,4.07V17.61L.15,20.3A21.89,21.89,0,0,0,8.9,35.51l.27.2.06,0A22.22,22.22,0,0,0,18,39.62a22.53,22.53,0,0,0,8.59.07l.49-.1.14-.05a22.22,22.22,0,0,0,8.42-3.79l.06,0,.27-.2A21.88,21.88,0,0,0,44.72,20.3l.16-2.69V4.07A4,4,0,0,0,44.65,2.68Zm-9.5,14.1L24.6,26.91a3.08,3.08,0,0,1-4.26,0L9.78,16.78A3.08,3.08,0,0,1,14,12.34l8.43,8.08,8.42-8.08a3.08,3.08,0,1,1,4.26,4.44Z"/></g></g></svg>