<svg xmlns="http://www.w3.org/2000/svg" viewBox="0 0 40.06 40.06"><defs><style>.cls-1{fill:#1c9ace;}.cls-2{fill:#fff;}</style></defs><title>icon_ht</title><g id="レイヤー_2" data-name="レイヤー 2"><g id="レイヤー_1-2" data-name="レイヤー 1"><rect class="cls-1" width="40.06" height="40.06" rx="8.16" ry="8.16"/><path class="cls-2" d="M22.29,20.68a4.32,4.32,0,0,0-3-1.37,4.94,4.94,0,0,0,2.52-1.39,3.62,3.62,0,0,0,.79-2.46A4.41,4.41,0,0,0,22,13.3a3.91,3.91,0,0,0-1.54-1.49,6.54,6.54,0,0,0-2.1-.69,31.71,31.71,0,0,0-4.3-.2h-5V29.13h5.14a33.38,33.38,0,0,0,4.47-.21A7.26,7.26,0,0,0,21,28.21a4.2,4.2,0,0,0,1.76-1.72,5.21,5.21,0,0,0,.61-2.57A4.67,4.67,0,0,0,22.29,20.68ZM13.72,15h1.07a5,5,0,0,1,2.49.42,1.6,1.6,0,0,1,.64,1.44,1.49,1.49,0,0,1-.68,1.39,5.47,5.47,0,0,1-2.52.4h-1ZM17.94,25.4a5.07,5.07,0,0,1-2.49.44H13.72v-4h1.81a4.75,4.75,0,0,1,2.48.45,1.79,1.79,0,0,1,.67,1.6A1.59,1.59,0,0,1,17.94,25.4Z"/><circle class="cls-2" cx="28.65" cy="26.83" r="2.31"/><rect class="cls-2" x="26.65" y="10.93" width="4.01" height="12.14"/></g></g></svg>