<svg xmlns="http://www.w3.org/2000/svg" viewBox="0 0 13.2 13.2"><defs><style>.cls-1{fill:#727171;}</style></defs><title>icon_top</title><g id="レイヤー_2" data-name="レイヤー 2"><g id="レイヤー_1-2" data-name="レイヤー 1"><rect class="cls-1" x="7.34" y="11.71" width="5.86" height="1.48"/><rect class="cls-1" x="7.34" y="7.34" width="5.86" height="1.48"/><rect class="cls-1" x="5.15" y="9.53" width="5.86" height="1.48" transform="translate(18.35 2.19) rotate(90)"/><rect class="cls-1" x="9.53" y="9.53" width="5.86" height="1.48" transform="translate(22.72 -2.18) rotate(90)"/><rect class="cls-1" x="7.34" y="4.37" width="5.86" height="1.48"/><rect class="cls-1" x="7.34" width="5.86" height="1.48"/><rect class="cls-1" x="5.15" y="2.19" width="5.86" height="1.48" transform="translate(11.01 -5.15) rotate(90)"/><rect class="cls-1" x="9.53" y="2.19" width="5.86" height="1.48" transform="translate(15.38 -9.53) rotate(90)"/><rect class="cls-1" y="11.71" width="5.86" height="1.48"/><rect class="cls-1" y="7.34" width="5.86" height="1.48"/><rect class="cls-1" x="-2.19" y="9.53" width="5.86" height="1.48" transform="translate(11.01 9.53) rotate(90)"/><rect class="cls-1" x="2.19" y="9.53" width="5.86" height="1.48" transform="translate(15.38 5.16) rotate(90)"/><rect class="cls-1" y="4.37" width="5.86" height="1.48"/><rect class="cls-1" width="5.86" height="1.48"/><rect class="cls-1" x="-2.19" y="2.19" width="5.86" height="1.48" transform="translate(3.67 2.19) rotate(90)"/><rect class="cls-1" x="2.19" y="2.19" width="5.86" height="1.48" transform="translate(8.04 -2.19) rotate(90)"/></g></g></svg>