<svg xmlns="http://www.w3.org/2000/svg" viewBox="0 0 40.06 40.06"><defs><style>.cls-1{fill:#3296d4;}.cls-2{fill:#fff;}.cls-3{fill:none;}</style></defs><title>icon_tw</title><g id="レイヤー_2" data-name="レイヤー 2"><g id="レイヤー_1-2" data-name="レイヤー 1"><rect class="cls-1" width="40.06" height="40.06" rx="2.39" ry="2.39"/><path class="cls-2" d="M15.39,30.2A14.52,14.52,0,0,0,30,15.59c0-.22,0-.44,0-.66a10.45,10.45,0,0,0,2.56-2.66,10.25,10.25,0,0,1-3,.81,5.15,5.15,0,0,0,2.26-2.84,10.29,10.29,0,0,1-3.26,1.25,5.14,5.14,0,0,0-8.75,4.68A14.58,14.58,0,0,1,9.25,10.8a5.14,5.14,0,0,0,1.59,6.86A5.1,5.1,0,0,1,8.52,17s0,0,0,.07a5.14,5.14,0,0,0,4.12,5,5.13,5.13,0,0,1-2.32.09,5.14,5.14,0,0,0,4.8,3.57A10.31,10.31,0,0,1,8.74,28a10.46,10.46,0,0,1-1.23-.07,14.54,14.54,0,0,0,7.87,2.31"/><rect class="cls-3" width="40.06" height="40.06"/></g></g></svg>