<svg xmlns="http://www.w3.org/2000/svg" viewBox="0 0 332.81 44.41"><defs><style>.cls-1{fill:#727171;}</style></defs><title>logo_sp</title><g id="レイヤー_2" data-name="レイヤー 2"><g id="レイヤー_1-2" data-name="レイヤー 1"><polygon class="cls-1" points="2.29 42.12 0 42.12 0 44.41 2.29 42.12"/><rect class="cls-1" x="-19.91" y="19.91" width="42.12" height="2.29" transform="translate(22.2 19.91) rotate(90)"/><polygon class="cls-1" points="39.96 42.12 42.25 42.12 42.25 44.41 39.96 42.12"/><rect class="cls-1" x="20.05" y="19.91" width="42.12" height="2.29" transform="translate(62.16 -20.05) rotate(90)"/><polygon class="cls-1" points="113.67 42.25 113.67 39.96 115.96 39.96 113.67 42.25"/><rect class="cls-1" x="71.56" y="39.96" width="42.12" height="2.29"/><rect class="cls-1" x="71.56" width="33.62" height="2.29" transform="translate(176.73 2.29) rotate(180)"/><rect class="cls-1" x="71.56" y="19.98" width="33.62" height="2.29" transform="translate(176.73 42.25) rotate(180)"/><path class="cls-1" d="M186.45,26.67h-1.29v-6a3,3,0,0,0-5.91,0v6H178v-6a4.24,4.24,0,0,1,8.49,0Z"/><path class="cls-1" d="M208.3,16.47a4.23,4.23,0,0,0-3,1.2v-4h-1.29v13h1.29v-6a3,3,0,0,1,5.91,0v6h1.29v-6A4.25,4.25,0,0,0,208.3,16.47Z"/><path class="cls-1" d="M255,16.47a4.23,4.23,0,0,0-3,1.2v-4h-1.29v13H252v-6a3,3,0,0,1,5.91,0v6h1.29v-6A4.25,4.25,0,0,0,255,16.47Z"/><path class="cls-1" d="M285.33,16.47a3.63,3.63,0,0,0-3,1.57,3.63,3.63,0,0,0-6.63,2.06v6.57H277V20.1a2.35,2.35,0,0,1,4.69,0v6.57H283V20.1a2.35,2.35,0,0,1,4.69,0v6.57H289V20.1A3.64,3.64,0,0,0,285.33,16.47Z"/><path class="cls-1" d="M170.15,22V20.71a4.24,4.24,0,0,0-8.49,0V22.8A4.24,4.24,0,0,0,170,24h-1.37A3,3,0,0,1,163,22.8V22Zm-4.24-4.24a3,3,0,0,1,3,3H163A3,3,0,0,1,165.91,17.76Z"/><path class="cls-1" d="M224.08,16.47a4.25,4.25,0,0,0-4.24,4.24V22.8a4.24,4.24,0,0,0,7.2,3v.83h1.29v-6A4.25,4.25,0,0,0,224.08,16.47Zm0,9.29a3,3,0,0,1-3-3V20.71a3,3,0,0,1,5.91,0V22.8A3,3,0,0,1,224.08,25.76Z"/><path class="cls-1" d="M300.5,27a4.25,4.25,0,0,1-4.24-4.24V20.71a4.24,4.24,0,0,1,8.49,0V22.8A4.25,4.25,0,0,1,300.5,27Zm0-9.29a3,3,0,0,0-3,3V22.8a3,3,0,0,0,5.91,0V20.71A3,3,0,0,0,300.5,17.76Z"/><path class="cls-1" d="M328.57,27a4.25,4.25,0,0,1-4.24-4.24V20.71a4.24,4.24,0,0,1,8.49,0V22.8A4.25,4.25,0,0,1,328.57,27Zm0-9.29a3,3,0,0,0-3,3V22.8a3,3,0,0,0,5.91,0V20.71A3,3,0,0,0,328.57,17.76Z"/><path class="cls-1" d="M241.19,21.47l-3.12-1.19c-.66-.28-1.06-.74-1-1.21l-.64,0,.64,0c0-.76,1.09-1.4,2.32-1.4s2.3.64,2.32,1.4L243,19c-.05-1.48-1.64-2.64-3.61-2.64s-3.56,1.16-3.61,2.64h0a2.66,2.66,0,0,0,1.84,2.45l3.12,1.19A1.72,1.72,0,0,1,241.9,24a1.3,1.3,0,0,1-.4.93,3.22,3.22,0,0,1-4.18,0,1.3,1.3,0,0,1-.4-.93l-1.29,0a2.57,2.57,0,0,0,.76,1.87,4.49,4.49,0,0,0,6,0,2.57,2.57,0,0,0,.76-1.87A3,3,0,0,0,241.19,21.47Z"/><rect class="cls-1" x="266.82" y="17.16" width="1.29" height="9.52"/><circle class="cls-1" cx="267.47" cy="14.5" r="0.94"/><polygon class="cls-1" points="317.67 17.17 315.12 17.17 315.12 13.68 313.83 13.68 313.83 17.17 311.27 17.17 311.27 18.46 313.83 18.46 313.83 26.67 315.12 26.67 315.12 18.46 317.67 18.46 317.67 17.17"/><rect class="cls-1" x="145.51" y="13.68" width="1.29" height="13"/><polygon class="cls-1" points="149.42 21.74 154.37 16.79 152.54 16.79 147.82 21.51 147.82 21.96 152.54 26.68 154.37 26.68 149.42 21.74"/></g></g></svg>