<svg xmlns="http://www.w3.org/2000/svg" viewBox="0 0 202.13 117.81"><defs><style>.cls-1{fill:#727171;}</style></defs><title>logo</title><g id="レイヤー_2" data-name="レイヤー 2"><g id="レイヤー_1-2" data-name="レイヤー 1"><polygon class="cls-1" points="3.99 73.41 0 73.41 0 77.41 3.99 73.41"/><rect class="cls-1" x="-34.71" y="34.71" width="73.41" height="3.99" transform="translate(38.7 34.71) rotate(90)"/><polygon class="cls-1" points="69.65 73.41 73.64 73.41 73.64 77.41 69.65 73.41"/><rect class="cls-1" x="34.94" y="34.71" width="73.41" height="3.99" transform="translate(108.35 -34.94) rotate(90)"/><polygon class="cls-1" points="198.14 73.64 198.14 69.65 202.13 69.65 198.14 73.64"/><rect class="cls-1" x="124.73" y="69.65" width="73.41" height="3.99"/><rect class="cls-1" x="124.73" width="58.6" height="3.99" transform="translate(308.05 3.99) rotate(180)"/><rect class="cls-1" x="124.73" y="34.83" width="58.6" height="3.99" transform="translate(308.05 73.64) rotate(180)"/><path class="cls-1" d="M43.06,117.41H41.7v-6.27a3.11,3.11,0,0,0-6.21,0v6.27H34.14v-6.27a4.46,4.46,0,0,1,8.92,0Z"/><path class="cls-1" d="M66,106.68a4.45,4.45,0,0,0-3.11,1.26v-4.2H61.58v13.67h1.36v-6.27a3.11,3.11,0,0,1,6.21,0v6.27h1.36v-6.27A4.47,4.47,0,0,0,66,106.68Z"/><path class="cls-1" d="M115.14,106.68a4.45,4.45,0,0,0-3.11,1.26v-4.2h-1.36v13.67H112v-6.27a3.11,3.11,0,0,1,6.21,0v6.27h1.36v-6.27A4.47,4.47,0,0,0,115.14,106.68Z"/><path class="cls-1" d="M147.06,106.68a3.82,3.82,0,0,0-3.15,1.65,3.82,3.82,0,0,0-7,2.17v6.91h1.36v-6.91a2.47,2.47,0,0,1,4.94,0v6.91h1.36v-6.91a2.47,2.47,0,0,1,4.94,0v6.91h1.36v-6.91A3.83,3.83,0,0,0,147.06,106.68Z"/><path class="cls-1" d="M25.92,112.5v-1.36a4.46,4.46,0,0,0-8.92,0v2.2a4.46,4.46,0,0,0,8.74,1.26H24.29a3.11,3.11,0,0,1-5.94-1.26v-.84ZM21.46,108a3.11,3.11,0,0,1,3.11,3.11H18.35A3.11,3.11,0,0,1,21.46,108Z"/><path class="cls-1" d="M82.64,106.68a4.47,4.47,0,0,0-4.46,4.46v2.2a4.46,4.46,0,0,0,7.57,3.2v.87h1.36v-6.27A4.47,4.47,0,0,0,82.64,106.68Zm0,9.77a3.11,3.11,0,0,1-3.11-3.11v-2.2a3.11,3.11,0,0,1,6.21,0v2.2A3.11,3.11,0,0,1,82.64,116.45Z"/><path class="cls-1" d="M163,117.81a4.47,4.47,0,0,1-4.46-4.46v-2.2a4.46,4.46,0,0,1,8.92,0v2.2A4.47,4.47,0,0,1,163,117.81Zm0-9.77a3.11,3.11,0,0,0-3.11,3.11v2.2a3.11,3.11,0,0,0,6.21,0v-2.2A3.11,3.11,0,0,0,163,108Z"/><path class="cls-1" d="M192.54,117.81a4.47,4.47,0,0,1-4.46-4.46v-2.2a4.46,4.46,0,0,1,8.92,0v2.2A4.47,4.47,0,0,1,192.54,117.81Zm0-9.77a3.11,3.11,0,0,0-3.11,3.11v2.2a3.11,3.11,0,0,0,6.21,0v-2.2A3.11,3.11,0,0,0,192.54,108Z"/><path class="cls-1" d="M100.63,111.94l-3.28-1.26c-.69-.29-1.11-.78-1.1-1.27l-.68,0,.68,0c0-.8,1.15-1.47,2.44-1.47s2.41.67,2.44,1.47l1.35,0c-.05-1.56-1.72-2.78-3.8-2.78s-3.74,1.22-3.8,2.78h0a2.8,2.8,0,0,0,1.94,2.57l3.28,1.26a1.81,1.81,0,0,1,1.26,1.45,1.36,1.36,0,0,1-.42,1,3.38,3.38,0,0,1-4.4,0,1.37,1.37,0,0,1-.42-1l-1.35,0a2.7,2.7,0,0,0,.8,2,4.72,4.72,0,0,0,6.35,0,2.7,2.7,0,0,0,.8-2A3.13,3.13,0,0,0,100.63,111.94Z"/><rect class="cls-1" x="127.6" y="107.4" width="1.36" height="10.01"/><circle class="cls-1" cx="128.27" cy="104.61" r="0.99"/><polygon class="cls-1" points="181.08 107.42 178.39 107.42 178.39 103.75 177.03 103.75 177.03 107.42 174.34 107.42 174.34 108.78 177.03 108.78 177.03 117.41 178.39 117.41 178.39 108.78 181.08 108.78 181.08 107.42"/><rect class="cls-1" y="103.74" width="1.36" height="13.67"/><polygon class="cls-1" points="4.12 112.22 9.32 107.02 7.4 107.02 2.43 111.99 2.43 112.46 7.4 117.42 9.32 117.42 4.12 112.22"/></g></g></svg>