<svg xmlns="http://www.w3.org/2000/svg" viewBox="0 0 53.62 51.87"><defs><style>.cls-1{fill:#727171;}.cls-2{fill:none;}</style></defs><title>sp_menu_top</title><g id="レイヤー_2" data-name="レイヤー 2"><g id="レイヤー_1-2" data-name="レイヤー 1"><path class="cls-1" d="M16.23,32.7V34H14.48v5.44a1.57,1.57,0,0,0,0,.41.42.42,0,0,0,.16.24.7.7,0,0,0,.33.11,4.66,4.66,0,0,0,.55,0h.66v1.27h-1.1a5.17,5.17,0,0,1-1-.08,1.4,1.4,0,0,1-.64-.28,1.19,1.19,0,0,1-.36-.58,3.32,3.32,0,0,1-.12-1V34H11.55V32.7H13V30.08h1.44V32.7Z"/><path class="cls-1" d="M20.65,35.28a4.09,4.09,0,0,1,.81-1.46,3.83,3.83,0,0,1,1.34-1,4.9,4.9,0,0,1,3.67,0,3.86,3.86,0,0,1,1.33,1,4.09,4.09,0,0,1,.81,1.46,5.83,5.83,0,0,1,.27,1.8,5.75,5.75,0,0,1-.27,1.79,4.1,4.1,0,0,1-.81,1.45,3.76,3.76,0,0,1-1.33,1,5,5,0,0,1-3.67,0,3.74,3.74,0,0,1-1.34-1,4.09,4.09,0,0,1-.81-1.45,5.75,5.75,0,0,1-.27-1.79A5.83,5.83,0,0,1,20.65,35.28Zm1.46,3.22a3,3,0,0,0,.58,1,2.53,2.53,0,0,0,.87.63,2.65,2.65,0,0,0,2.12,0,2.54,2.54,0,0,0,.87-.63,3,3,0,0,0,.58-1,4.82,4.82,0,0,0,0-2.83,3.05,3.05,0,0,0-.58-1,2.49,2.49,0,0,0-.87-.64,2.66,2.66,0,0,0-2.12,0,2.48,2.48,0,0,0-.87.64,3,3,0,0,0-.58,1,4.83,4.83,0,0,0,0,2.83Z"/><path class="cls-1" d="M35.21,32.7v1.19h0a2.16,2.16,0,0,1,1.12-1.06A4.18,4.18,0,0,1,38,32.5a4,4,0,0,1,1.77.37,3.62,3.62,0,0,1,1.25,1,4.47,4.47,0,0,1,.75,1.46,6,6,0,0,1,.25,1.76,6.18,6.18,0,0,1-.25,1.76,4.15,4.15,0,0,1-.75,1.45,3.52,3.52,0,0,1-1.25,1,4.08,4.08,0,0,1-1.75.36,4.35,4.35,0,0,1-.72-.07,4,4,0,0,1-.79-.22,3.08,3.08,0,0,1-.74-.42,2.31,2.31,0,0,1-.58-.65h0v4.5H33.77V32.7Zm5.17,3.11a3.23,3.23,0,0,0-.49-1A2.4,2.4,0,0,0,39,34a2.57,2.57,0,0,0-1.21-.27,2.37,2.37,0,0,0-2.07,1,3.14,3.14,0,0,0-.47,1.06,5.11,5.11,0,0,0,0,2.45,3.07,3.07,0,0,0,.48,1.06,2.46,2.46,0,0,0,.85.74,2.67,2.67,0,0,0,1.27.28,2.47,2.47,0,0,0,1.24-.29,2.32,2.32,0,0,0,.8-.76,3.31,3.31,0,0,0,.44-1.08A5.76,5.76,0,0,0,40.54,37,4.47,4.47,0,0,0,40.38,35.81Z"/><rect class="cls-1" x="27.27" y="12.73" width="6.37" height="1.61"/><rect class="cls-1" x="27.27" y="7.98" width="6.37" height="1.61"/><rect class="cls-1" x="24.89" y="10.36" width="6.37" height="1.61" transform="translate(39.24 -16.91) rotate(90)"/><rect class="cls-1" x="29.65" y="10.36" width="6.37" height="1.61" transform="translate(43.99 -21.67) rotate(90)"/><rect class="cls-1" x="27.27" y="4.75" width="6.37" height="1.61"/><rect class="cls-1" x="27.27" width="6.37" height="1.61"/><rect class="cls-1" x="24.89" y="2.38" width="6.37" height="1.61" transform="translate(31.26 -24.89) rotate(90)"/><rect class="cls-1" x="29.65" y="2.38" width="6.37" height="1.61" transform="translate(36.01 -29.65) rotate(90)"/><rect class="cls-1" x="19.29" y="12.73" width="6.37" height="1.61"/><rect class="cls-1" x="19.29" y="7.98" width="6.37" height="1.61"/><rect class="cls-1" x="16.92" y="10.36" width="6.37" height="1.61" transform="translate(31.26 -8.94) rotate(90)"/><rect class="cls-1" x="21.67" y="10.36" width="6.37" height="1.61" transform="translate(36.01 -13.69) rotate(90)"/><rect class="cls-1" x="19.29" y="4.75" width="6.37" height="1.61"/><rect class="cls-1" x="19.29" width="6.37" height="1.61"/><rect class="cls-1" x="16.92" y="2.38" width="6.37" height="1.61" transform="translate(23.28 -16.92) rotate(90)"/><rect class="cls-1" x="21.67" y="2.38" width="6.37" height="1.61" transform="translate(28.03 -21.67) rotate(90)"/><rect class="cls-2" width="53.62" height="51.87"/></g></g></svg>