<svg xmlns="http://www.w3.org/2000/svg" viewBox="0 0 53.62 45.56"><defs><style>.cls-1{fill:#727171;}</style></defs><title>sp_menu_news</title><g id="レイヤー_2" data-name="レイヤー 2"><g id="レイヤー_1-2" data-name="レイヤー 1"><path class="cls-1" d="M1.52,35.56v1.55h0a3.39,3.39,0,0,1,3.18-1.78,4.25,4.25,0,0,1,1.61.27,2.65,2.65,0,0,1,1,.74,2.74,2.74,0,0,1,.56,1.13,6.08,6.08,0,0,1,.16,1.45v6.44H6.5V38.72A2,2,0,0,0,6,37.28a2,2,0,0,0-1.46-.53A3.28,3.28,0,0,0,3.23,37a2.4,2.4,0,0,0-.9.64,2.78,2.78,0,0,0-.54,1,4,4,0,0,0-.18,1.22v5.53H0V35.56Z"/><path class="cls-1" d="M21,44.72a4.45,4.45,0,0,1-2.77.83,5,5,0,0,1-2-.38,4,4,0,0,1-1.45-1.06,4.5,4.5,0,0,1-.88-1.63,7.85,7.85,0,0,1-.33-2.06,5.89,5.89,0,0,1,.34-2,4.88,4.88,0,0,1,1-1.61,4.34,4.34,0,0,1,1.46-1.06,4.45,4.45,0,0,1,1.85-.38,4,4,0,0,1,2.17.54,4.3,4.3,0,0,1,1.38,1.37,5.44,5.44,0,0,1,.72,1.82,7.8,7.8,0,0,1,.16,1.88H15.21a3.88,3.88,0,0,0,.15,1.22,2.76,2.76,0,0,0,.55,1,2.7,2.7,0,0,0,1,.71,3.33,3.33,0,0,0,1.38.27,2.79,2.79,0,0,0,1.68-.47,2.29,2.29,0,0,0,.86-1.44h1.59A3.92,3.92,0,0,1,21,44.72Zm-.39-6.29A2.74,2.74,0,0,0,18,36.75a2.8,2.8,0,0,0-1.13.22,2.59,2.59,0,0,0-.86.6,2.85,2.85,0,0,0-.57.88,3.34,3.34,0,0,0-.25,1.07h5.63A3.3,3.3,0,0,0,20.58,38.44Z"/><path class="cls-1" d="M35.87,45.35l-2-7.78h0l-2,7.78H30.13L27,35.56h1.78l2.22,8h0l2-8h1.76l2,8h0l2.2-8H40.7l-3.13,9.79Z"/><path class="cls-1" d="M47.16,43.16a1.71,1.71,0,0,0,.6.59,2.68,2.68,0,0,0,.83.31,4.76,4.76,0,0,0,1,.09,5.9,5.9,0,0,0,.8-.06,2.91,2.91,0,0,0,.77-.21,1.44,1.44,0,0,0,.58-.45,1.19,1.19,0,0,0,.23-.75,1.07,1.07,0,0,0-.47-.95,4,4,0,0,0-1.18-.52q-.71-.2-1.54-.36a8,8,0,0,1-1.54-.45A3.19,3.19,0,0,1,46,39.59a2.14,2.14,0,0,1-.47-1.48,2.34,2.34,0,0,1,.33-1.27A2.71,2.71,0,0,1,46.7,36a3.92,3.92,0,0,1,1.17-.49,5.42,5.42,0,0,1,1.3-.16,7.73,7.73,0,0,1,1.53.14,3.55,3.55,0,0,1,1.24.49,2.55,2.55,0,0,1,.86.95,3.59,3.59,0,0,1,.38,1.49H51.58a1.54,1.54,0,0,0-.78-1.29,2.42,2.42,0,0,0-.71-.27,3.65,3.65,0,0,0-.79-.09,4.79,4.79,0,0,0-.73.06,2.45,2.45,0,0,0-.67.2,1.35,1.35,0,0,0-.49.38,1,1,0,0,0-.19.62.9.9,0,0,0,.29.69,2.33,2.33,0,0,0,.75.45,6.51,6.51,0,0,0,1,.3l1.14.26A12.13,12.13,0,0,1,51.6,40a3.86,3.86,0,0,1,1,.5,2.46,2.46,0,0,1,.72.79,2.31,2.31,0,0,1,.27,1.17A2.73,2.73,0,0,1,53.25,44a2.89,2.89,0,0,1-1,.95,4,4,0,0,1-1.34.5,8,8,0,0,1-1.49.14,6.88,6.88,0,0,1-1.55-.17,3.81,3.81,0,0,1-1.31-.56,2.85,2.85,0,0,1-.91-1,3.55,3.55,0,0,1-.38-1.54h1.61A1.81,1.81,0,0,0,47.16,43.16Z"/><circle class="cls-1" cx="27.29" cy="17.33" r="2.57"/><rect class="cls-1" x="25.3" width="3.99" height="11.73"/></g></g></svg>