<svg xmlns="http://www.w3.org/2000/svg" viewBox="0 0 45.42 50.04"><defs><style>.cls-1{fill:#727171;}</style></defs><title>sp_menu_blog</title><g id="レイヤー_2" data-name="レイヤー 2"><g id="レイヤー_1-2" data-name="レイヤー 1"><path class="cls-1" d="M1.61,32.56v5.06h0A2.41,2.41,0,0,1,2.9,36.43a4.67,4.67,0,0,1,1.88-.37,4.42,4.42,0,0,1,2,.42,4,4,0,0,1,1.4,1.13A5,5,0,0,1,9,39.24a6.69,6.69,0,0,1,.28,2,6.92,6.92,0,0,1-.27,2,4.63,4.63,0,0,1-.83,1.62,3.92,3.92,0,0,1-1.4,1.09,4.54,4.54,0,0,1-2,.4,4.85,4.85,0,0,1-.8-.08A4.47,4.47,0,0,1,3.13,46a3.43,3.43,0,0,1-.82-.46,2.59,2.59,0,0,1-.65-.73h0v1.31H0V32.56ZM7.4,39.76a3.61,3.61,0,0,0-.55-1.16,2.69,2.69,0,0,0-.95-.81,2.88,2.88,0,0,0-1.35-.3,2.77,2.77,0,0,0-1.38.32,2.78,2.78,0,0,0-.93.84,3.5,3.5,0,0,0-.52,1.18,5.74,5.74,0,0,0,0,2.74,3.46,3.46,0,0,0,.54,1.18,2.76,2.76,0,0,0,1,.82,3,3,0,0,0,1.42.31A2.75,2.75,0,0,0,6,44.56a2.59,2.59,0,0,0,.9-.85,3.69,3.69,0,0,0,.49-1.21,6.41,6.41,0,0,0,.15-1.4A5,5,0,0,0,7.4,39.76Z"/><path class="cls-1" d="M16.38,32.56V46.08H14.76V32.56Z"/><path class="cls-1" d="M22.16,39.17a4.56,4.56,0,0,1,.91-1.63,4.27,4.27,0,0,1,1.5-1.09,5.48,5.48,0,0,1,4.1,0,4.31,4.31,0,0,1,1.49,1.09,4.57,4.57,0,0,1,.91,1.63,6.52,6.52,0,0,1,.3,2,6.43,6.43,0,0,1-.3,2,4.58,4.58,0,0,1-.91,1.62,4.2,4.2,0,0,1-1.49,1.08,5.61,5.61,0,0,1-4.1,0,4.17,4.17,0,0,1-1.5-1.08,4.56,4.56,0,0,1-.91-1.62,6.43,6.43,0,0,1-.3-2A6.52,6.52,0,0,1,22.16,39.17Zm1.64,3.6a3.32,3.32,0,0,0,.65,1.16,2.84,2.84,0,0,0,1,.71,3,3,0,0,0,2.37,0,2.83,2.83,0,0,0,1-.71,3.31,3.31,0,0,0,.65-1.16,5.41,5.41,0,0,0,0-3.16,3.41,3.41,0,0,0-.65-1.16,2.78,2.78,0,0,0-1-.72,3,3,0,0,0-2.37,0,2.8,2.8,0,0,0-1,.72,3.43,3.43,0,0,0-.65,1.16,5.41,5.41,0,0,0,0,3.16Z"/><path class="cls-1" d="M44.32,48.84A4.48,4.48,0,0,1,40.88,50a6.67,6.67,0,0,1-1.39-.15,4.28,4.28,0,0,1-1.29-.49,3,3,0,0,1-1-.89,2.53,2.53,0,0,1-.42-1.34h1.61a1.18,1.18,0,0,0,.27.74,2,2,0,0,0,.63.49,3,3,0,0,0,.8.27,4.36,4.36,0,0,0,.83.09,3,3,0,0,0,1.34-.27,2.53,2.53,0,0,0,.91-.76,3.14,3.14,0,0,0,.52-1.16,6.51,6.51,0,0,0,.16-1.5v-.64h0a2.7,2.7,0,0,1-1.26,1.34,3.91,3.91,0,0,1-1.79.43,4.31,4.31,0,0,1-1.91-.4,4,4,0,0,1-1.36-1.07,4.56,4.56,0,0,1-.82-1.57,6.5,6.5,0,0,1-.27-1.9,7.45,7.45,0,0,1,.23-1.79,4.88,4.88,0,0,1,.76-1.67,4.15,4.15,0,0,1,1.4-1.23A4.36,4.36,0,0,1,41,36.06a3.61,3.61,0,0,1,1.7.41,2.87,2.87,0,0,1,1.21,1.22h0v-1.4h1.52v9A5.16,5.16,0,0,1,44.32,48.84Zm-2.06-4.4a2.64,2.64,0,0,0,.9-.87,4,4,0,0,0,.5-1.22A5.91,5.91,0,0,0,43.83,41a5.34,5.34,0,0,0-.15-1.27,3.54,3.54,0,0,0-.48-1.13,2.52,2.52,0,0,0-.86-.8,2.56,2.56,0,0,0-1.29-.3,2.78,2.78,0,0,0-1.33.29,2.57,2.57,0,0,0-.9.79,3.32,3.32,0,0,0-.51,1.14A5.52,5.52,0,0,0,38.15,41a6.71,6.71,0,0,0,.13,1.33,3.75,3.75,0,0,0,.45,1.2,2.56,2.56,0,0,0,.85.87,2.45,2.45,0,0,0,1.33.33A2.61,2.61,0,0,0,42.27,44.44Z"/><rect class="cls-1" x="14.45" width="16.91" height="1.81"/><rect class="cls-1" x="14.45" y="4.6" width="16.91" height="1.81"/><rect class="cls-1" x="14.45" y="9.2" width="16.91" height="1.81"/><rect class="cls-1" x="14.45" y="13.8" width="16.91" height="1.81"/></g></g></svg>