<svg xmlns="http://www.w3.org/2000/svg" viewBox="0 0 72.47 51.64"><defs><style>.cls-1{fill:#727171;}</style></defs><title>sp_menu_profile</title><g id="レイヤー_2" data-name="レイヤー 2"><g id="レイヤー_1-2" data-name="レイヤー 1"><path class="cls-1" d="M1.61,38.12v1.33h0A2.41,2.41,0,0,1,2.9,38.26a4.67,4.67,0,0,1,1.88-.37,4.42,4.42,0,0,1,2,.42,4,4,0,0,1,1.4,1.13A5,5,0,0,1,9,41.07a6.69,6.69,0,0,1,.28,2A6.92,6.92,0,0,1,9,45a4.64,4.64,0,0,1-.83,1.62,3.93,3.93,0,0,1-1.4,1.09,4.55,4.55,0,0,1-2,.4A4.86,4.86,0,0,1,4,48a4.48,4.48,0,0,1-.88-.25,3.44,3.44,0,0,1-.82-.46,2.59,2.59,0,0,1-.65-.73h0v5H0V38.12ZM7.4,41.59a3.62,3.62,0,0,0-.55-1.16,2.69,2.69,0,0,0-.95-.81,2.88,2.88,0,0,0-1.35-.3,2.76,2.76,0,0,0-1.38.32,2.77,2.77,0,0,0-.93.84,3.53,3.53,0,0,0-.52,1.18,5.74,5.74,0,0,0,0,2.74,3.45,3.45,0,0,0,.54,1.18,2.76,2.76,0,0,0,1,.82,3,3,0,0,0,1.42.31A2.75,2.75,0,0,0,6,46.4a2.59,2.59,0,0,0,.9-.85,3.71,3.71,0,0,0,.49-1.21,6.47,6.47,0,0,0,.15-1.4A5,5,0,0,0,7.4,41.59Z"/><path class="cls-1" d="M16.23,38.12v2.06h0a4.36,4.36,0,0,1,1.44-1.76,3.62,3.62,0,0,1,2.16-.53v1.7a4.56,4.56,0,0,0-1.65.27,2.6,2.6,0,0,0-1.1.78,3.2,3.2,0,0,0-.61,1.24,6.68,6.68,0,0,0-.19,1.68v4.36H14.71V38.12Z"/><path class="cls-1" d="M24.72,41a4.56,4.56,0,0,1,.91-1.63,4.28,4.28,0,0,1,1.5-1.09,5.49,5.49,0,0,1,4.1,0,4.31,4.31,0,0,1,1.49,1.09A4.58,4.58,0,0,1,33.62,41a6.53,6.53,0,0,1,.3,2,6.44,6.44,0,0,1-.3,2,4.59,4.59,0,0,1-.91,1.62,4.2,4.2,0,0,1-1.49,1.08,5.61,5.61,0,0,1-4.1,0,4.18,4.18,0,0,1-1.5-1.08A4.57,4.57,0,0,1,24.72,45a6.43,6.43,0,0,1-.3-2A6.52,6.52,0,0,1,24.72,41Zm1.64,3.6A3.31,3.31,0,0,0,27,45.76a2.83,2.83,0,0,0,1,.71,3,3,0,0,0,2.37,0,2.83,2.83,0,0,0,1-.71A3.31,3.31,0,0,0,32,44.61a5.4,5.4,0,0,0,0-3.16,3.42,3.42,0,0,0-.65-1.16,2.79,2.79,0,0,0-1-.72,3,3,0,0,0-2.37,0,2.78,2.78,0,0,0-1,.72,3.42,3.42,0,0,0-.65,1.16,5.41,5.41,0,0,0,0,3.16Z"/><path class="cls-1" d="M38.44,39.54V38.12h1.65V36.66a2.3,2.3,0,0,1,.69-1.81,2.94,2.94,0,0,1,2-.62,4.14,4.14,0,0,1,.52,0,2.79,2.79,0,0,1,.52.11v1.4a2,2,0,0,0-.45-.1l-.45,0a1.56,1.56,0,0,0-.91.23,1,1,0,0,0-.32.87v1.36h1.89v1.42H41.7v8.37H40.09V39.54Z"/><path class="cls-1" d="M48.9,36.36v-2h1.61v2Zm1.61,1.76v9.79H48.9V38.12Z"/><path class="cls-1" d="M57.95,34.39V47.91H56.34V34.39Z"/><path class="cls-1" d="M70.89,47.29a4.45,4.45,0,0,1-2.77.83,5,5,0,0,1-2-.38,4,4,0,0,1-1.45-1.06,4.5,4.5,0,0,1-.88-1.63A7.85,7.85,0,0,1,63.43,43a5.89,5.89,0,0,1,.34-2,4.88,4.88,0,0,1,1-1.61,4.34,4.34,0,0,1,1.46-1.06A4.45,4.45,0,0,1,68,37.89a4,4,0,0,1,2.17.54,4.3,4.3,0,0,1,1.38,1.37,5.44,5.44,0,0,1,.72,1.82,7.8,7.8,0,0,1,.16,1.88H65.13a3.88,3.88,0,0,0,.15,1.22,2.76,2.76,0,0,0,.55,1,2.7,2.7,0,0,0,1,.71,3.33,3.33,0,0,0,1.38.27,2.79,2.79,0,0,0,1.68-.47,2.29,2.29,0,0,0,.86-1.44h1.59A3.92,3.92,0,0,1,70.89,47.29ZM70.5,41a2.74,2.74,0,0,0-2.57-1.69,2.8,2.8,0,0,0-1.13.22,2.59,2.59,0,0,0-.86.6,2.85,2.85,0,0,0-.57.88,3.34,3.34,0,0,0-.25,1.07h5.63A3.3,3.3,0,0,0,70.5,41Z"/><ellipse class="cls-1" cx="34.82" cy="4" rx="4.94" ry="4"/><path class="cls-1" d="M27.07,15.63c0-3.47,3.47-6.29,7.75-6.29s7.75,2.81,7.75,6.29Z"/></g></g></svg>