<svg xmlns="http://www.w3.org/2000/svg" viewBox="0 0 84.98 45.37"><defs><style>.cls-1{fill:#727171;}</style></defs><title>sp_menu_contact</title><g id="レイヤー_2" data-name="レイヤー 2"><g id="レイヤー_1-2" data-name="レイヤー 1"><path class="cls-1" d="M6.38,37.07a2.44,2.44,0,0,0-1.63-.51,3,3,0,0,0-1.46.32,2.6,2.6,0,0,0-.94.85A3.58,3.58,0,0,0,1.86,39a6.63,6.63,0,0,0-.15,1.43,5.44,5.44,0,0,0,.16,1.33,3.53,3.53,0,0,0,.5,1.15,2.53,2.53,0,0,0,.89.8,2.66,2.66,0,0,0,1.31.3,2.64,2.64,0,0,0,1.87-.62,2.83,2.83,0,0,0,.82-1.76H8.9a4.51,4.51,0,0,1-1.35,2.8,4.25,4.25,0,0,1-3,1,5.1,5.1,0,0,1-2-.36,3.83,3.83,0,0,1-1.44-1,4.41,4.41,0,0,1-.87-1.58,6.58,6.58,0,0,1-.29-2,7.19,7.19,0,0,1,.28-2.06,4.75,4.75,0,0,1,.86-1.67,4,4,0,0,1,1.45-1.12,4.74,4.74,0,0,1,2-.41,5.92,5.92,0,0,1,1.56.2A3.83,3.83,0,0,1,7.47,36,3.37,3.37,0,0,1,8.39,37a3.87,3.87,0,0,1,.46,1.51H7.18A2.45,2.45,0,0,0,6.38,37.07Z"/><path class="cls-1" d="M14.23,38.26a4.56,4.56,0,0,1,.91-1.63,4.27,4.27,0,0,1,1.5-1.09,5,5,0,0,1,2-.4,5,5,0,0,1,2.06.4,4.31,4.31,0,0,1,1.49,1.09,4.57,4.57,0,0,1,.91,1.63,6.52,6.52,0,0,1,.3,2,6.43,6.43,0,0,1-.3,2,4.58,4.58,0,0,1-.91,1.62A4.2,4.2,0,0,1,20.74,45a5.06,5.06,0,0,1-2.06.39,5.08,5.08,0,0,1-2-.39,4.17,4.17,0,0,1-1.5-1.08,4.56,4.56,0,0,1-.91-1.62,6.43,6.43,0,0,1-.3-2A6.52,6.52,0,0,1,14.23,38.26Zm1.64,3.6A3.32,3.32,0,0,0,16.52,43a2.84,2.84,0,0,0,1,.71,3,3,0,0,0,2.37,0,2.83,2.83,0,0,0,1-.71,3.31,3.31,0,0,0,.65-1.16,5.41,5.41,0,0,0,0-3.16,3.41,3.41,0,0,0-.65-1.16,2.78,2.78,0,0,0-1-.72,3,3,0,0,0-2.37,0,2.8,2.8,0,0,0-1,.72,3.43,3.43,0,0,0-.65,1.16,5.41,5.41,0,0,0,0,3.16Z"/><path class="cls-1" d="M30.39,35.37v1.55h0a3.39,3.39,0,0,1,3.18-1.78,4.25,4.25,0,0,1,1.61.27,2.65,2.65,0,0,1,1,.74,2.74,2.74,0,0,1,.56,1.13A6.11,6.11,0,0,1,37,38.72v6.44H35.38V38.53a1.94,1.94,0,0,0-.53-1.44,2,2,0,0,0-1.46-.53,3.29,3.29,0,0,0-1.28.23,2.4,2.4,0,0,0-.9.64,2.78,2.78,0,0,0-.54,1,4,4,0,0,0-.18,1.22v5.53H28.88V35.37Z"/><path class="cls-1" d="M47.17,35.37v1.42h-2v6.08a1.77,1.77,0,0,0,0,.45.47.47,0,0,0,.18.27.79.79,0,0,0,.37.12,5.33,5.33,0,0,0,.62,0h.74v1.42H45.94a5.78,5.78,0,0,1-1.07-.09,1.57,1.57,0,0,1-.72-.31,1.34,1.34,0,0,1-.41-.64,3.7,3.7,0,0,1-.13-1.1V36.79H41.95V35.37h1.67V32.43h1.61v2.94Z"/><path class="cls-1" d="M61.4,45.12a2.28,2.28,0,0,1-1.16.25,1.38,1.38,0,0,1-1-.35,1.52,1.52,0,0,1-.37-1.15A3.86,3.86,0,0,1,57.33,45a5.33,5.33,0,0,1-3.16.2,2.93,2.93,0,0,1-1-.47,2.27,2.27,0,0,1-.69-.84,2.84,2.84,0,0,1-.26-1.26,2.88,2.88,0,0,1,.28-1.36,2.48,2.48,0,0,1,.75-.86,3.44,3.44,0,0,1,1.06-.5q.6-.17,1.22-.28t1.26-.2a7,7,0,0,0,1.05-.19,1.76,1.76,0,0,0,.72-.36.88.88,0,0,0,.26-.69,1.61,1.61,0,0,0-.2-.85,1.36,1.36,0,0,0-.51-.49,2.09,2.09,0,0,0-.7-.23,5.3,5.3,0,0,0-.77-.06,3.41,3.41,0,0,0-1.71.39,1.65,1.65,0,0,0-.74,1.47H52.57A3.48,3.48,0,0,1,53,36.89a2.87,2.87,0,0,1,.91-1,3.82,3.82,0,0,1,1.3-.56,6.85,6.85,0,0,1,1.56-.17,9.19,9.19,0,0,1,1.32.09,3.44,3.44,0,0,1,1.18.39,2.27,2.27,0,0,1,.85.82,2.63,2.63,0,0,1,.32,1.38v5a3.76,3.76,0,0,0,.07.83q.07.26.45.26a2,2,0,0,0,.49-.08Zm-2.61-5a2,2,0,0,1-.8.33q-.49.1-1,.17l-1.09.15a4,4,0,0,0-1,.27,1.79,1.79,0,0,0-.71.54,1.5,1.5,0,0,0-.27,1,1.3,1.3,0,0,0,.16.67,1.33,1.33,0,0,0,.42.44,1.76,1.76,0,0,0,.6.25,3.32,3.32,0,0,0,.72.08,3.84,3.84,0,0,0,1.36-.22,2.88,2.88,0,0,0,.93-.55,2.15,2.15,0,0,0,.53-.72,1.79,1.79,0,0,0,.17-.73Z"/><path class="cls-1" d="M72.53,37.07a2.44,2.44,0,0,0-1.63-.51,3,3,0,0,0-1.46.32,2.6,2.6,0,0,0-.94.85A3.58,3.58,0,0,0,68,39a6.63,6.63,0,0,0-.15,1.43A5.44,5.44,0,0,0,68,41.72a3.53,3.53,0,0,0,.5,1.15,2.53,2.53,0,0,0,.89.8,2.66,2.66,0,0,0,1.31.3,2.64,2.64,0,0,0,1.87-.62,2.83,2.83,0,0,0,.82-1.76H75a4.51,4.51,0,0,1-1.35,2.8,4.25,4.25,0,0,1-3,1,5.1,5.1,0,0,1-2-.36,3.83,3.83,0,0,1-1.44-1,4.41,4.41,0,0,1-.87-1.58,6.58,6.58,0,0,1-.29-2,7.19,7.19,0,0,1,.28-2.06,4.75,4.75,0,0,1,.86-1.67,4,4,0,0,1,1.45-1.12,4.74,4.74,0,0,1,2-.41,5.92,5.92,0,0,1,1.56.2,3.83,3.83,0,0,1,1.29.62A3.37,3.37,0,0,1,74.54,37,3.87,3.87,0,0,1,75,38.51H73.33A2.45,2.45,0,0,0,72.53,37.07Z"/><path class="cls-1" d="M85,35.37v1.42H83v6.08a1.77,1.77,0,0,0,0,.45.47.47,0,0,0,.18.27.79.79,0,0,0,.37.12,5.33,5.33,0,0,0,.62,0H85v1.42H83.75a5.78,5.78,0,0,1-1.07-.09,1.57,1.57,0,0,1-.72-.31,1.34,1.34,0,0,1-.41-.64,3.7,3.7,0,0,1-.13-1.1V36.79H79.75V35.37h1.67V32.43H83v2.94Z"/><polygon class="cls-1" points="41.68 7.71 48.84 0 34.52 0 41.68 7.71"/><polygon class="cls-1" points="41.68 10.22 32.41 0.25 32.41 13.78 50.95 13.78 50.95 0.25 41.68 10.22"/></g></g></svg>